<svg width="21" height="21" viewBox="0 0 21 21" fill="none" xmlns="http://www.w3.org/2000/svg">
<path d="M9.03437 3.77738C9.40712 2.24087 11.5929 2.24087 11.9656 3.77738C12.0216 4.0082 12.1312 4.22256 12.2856 4.403C12.4401 4.58344 12.6349 4.72487 12.8543 4.81578C13.0737 4.90668 13.3115 4.94449 13.5483 4.92614C13.7851 4.90778 14.0142 4.83376 14.217 4.71012C15.5671 3.88762 17.1133 5.43287 16.2908 6.78387C16.1673 6.98657 16.0934 7.21554 16.0751 7.45218C16.0568 7.68881 16.0945 7.92642 16.1853 8.14571C16.2761 8.36499 16.4174 8.55976 16.5976 8.71417C16.7779 8.86859 16.992 8.97829 17.2226 9.03437C18.7591 9.40712 18.7591 11.5929 17.2226 11.9656C16.9918 12.0216 16.7774 12.1312 16.597 12.2856C16.4166 12.4401 16.2751 12.6349 16.1842 12.8543C16.0933 13.0737 16.0555 13.3115 16.0739 13.5483C16.0922 13.7851 16.1662 14.0142 16.2899 14.217C17.1124 15.5671 15.5671 17.1133 14.2161 16.2908C14.0134 16.1673 13.7845 16.0934 13.5478 16.0751C13.3112 16.0568 13.0736 16.0945 12.8543 16.1853C12.635 16.2761 12.4402 16.4174 12.2858 16.5976C12.1314 16.7779 12.0217 16.992 11.9656 17.2226C11.5929 18.7591 9.40712 18.7591 9.03437 17.2226C8.97845 16.9918 8.86881 16.7774 8.71438 16.597C8.55995 16.4166 8.3651 16.2751 8.14568 16.1842C7.92626 16.0933 7.68848 16.0555 7.45169 16.0739C7.21489 16.0922 6.98578 16.1662 6.783 16.2899C5.43287 17.1124 3.88675 15.5671 4.70925 14.2161C4.83271 14.0134 4.90661 13.7845 4.92492 13.5478C4.94324 13.3112 4.90546 13.0736 4.81466 12.8543C4.72386 12.635 4.5826 12.4402 4.40236 12.2858C4.22212 12.1314 4.00799 12.0217 3.77738 11.9656C2.24087 11.5929 2.24087 9.40712 3.77738 9.03437C4.0082 8.97845 4.22256 8.86881 4.403 8.71438C4.58344 8.55995 4.72487 8.3651 4.81578 8.14568C4.90668 7.92626 4.94449 7.68848 4.92614 7.45169C4.90778 7.21489 4.83376 6.98578 4.71012 6.783C3.88762 5.43287 5.43287 3.88675 6.78387 4.70925C7.65537 5.24125 8.79287 4.7705 9.03437 3.77738Z" stroke="#151417" stroke-width="1.2" stroke-linecap="round" stroke-linejoin="round"/>
<path d="M13.125 10.5C13.125 11.1962 12.8484 11.8639 12.3562 12.3562C11.8639 12.8484 11.1962 13.125 10.5 13.125C9.80381 13.125 9.13613 12.8484 8.64384 12.3562C8.15156 11.8639 7.875 11.1962 7.875 10.5C7.875 9.80381 8.15156 9.13613 8.64384 8.64384C9.13613 8.15156 9.80381 7.875 10.5 7.875C11.1962 7.875 11.8639 8.15156 12.3562 8.64384C12.8484 9.13613 13.125 9.80381 13.125 10.5V10.5Z" stroke="#151417" stroke-width="1.2" stroke-linecap="round" stroke-linejoin="round"/>
</svg>
