<svg width="21" height="21" viewBox="0 0 21 21" fill="none" xmlns="http://www.w3.org/2000/svg">
<path d="M18.375 10.5C18.375 11.5342 18.1713 12.5582 17.7756 13.5136C17.3798 14.4691 16.7997 15.3372 16.0685 16.0685C15.3372 16.7997 14.4691 17.3798 13.5136 17.7756C12.5582 18.1713 11.5342 18.375 10.5 18.375C9.46584 18.375 8.44181 18.1713 7.48637 17.7756C6.53093 17.3798 5.6628 16.7997 4.93153 16.0685C4.20027 15.3372 3.6202 14.4691 3.22445 13.5136C2.82869 12.5582 2.625 11.5342 2.625 10.5C2.625 8.41142 3.45468 6.40838 4.93153 4.93153C6.40838 3.45469 8.41142 2.625 10.5 2.625C12.5886 2.625 14.5916 3.45469 16.0685 4.93153C17.5453 6.40838 18.375 8.41142 18.375 10.5Z" stroke="#151417" stroke-width="1.2" stroke-linecap="round" stroke-linejoin="round"/>
<path d="M10.1713 16.0909V5.18182H10.8702V16.0909H10.1713ZM12.3574 8.56534C12.312 8.16193 12.1245 7.84943 11.7949 7.62784C11.4654 7.40341 11.0506 7.29119 10.5506 7.29119C10.1926 7.29119 9.88299 7.34801 9.62163 7.46165C9.36026 7.57244 9.15714 7.72585 9.01225 7.92188C8.87021 8.11506 8.79918 8.33523 8.79918 8.58239C8.79918 8.78977 8.84748 8.96875 8.94407 9.11932C9.0435 9.26989 9.17276 9.39631 9.33185 9.49858C9.49379 9.59801 9.66708 9.68182 9.85174 9.75C10.0364 9.81534 10.214 9.86932 10.3844 9.91193L11.2367 10.1335C11.5151 10.2017 11.8006 10.294 12.0932 10.4105C12.3858 10.527 12.6571 10.6804 12.9071 10.8707C13.1571 11.0611 13.3588 11.2969 13.5123 11.5781C13.6685 11.8594 13.7466 12.196 13.7466 12.5881C13.7466 13.0824 13.6188 13.5213 13.3631 13.9048C13.1103 14.2884 12.7424 14.5909 12.2594 14.8125C11.7793 15.0341 11.1983 15.1449 10.5165 15.1449C9.8631 15.1449 9.29776 15.0412 8.82049 14.8338C8.34322 14.6264 7.96964 14.3324 7.69975 13.9517C7.42987 13.5682 7.28072 13.1136 7.25231 12.5881H8.57333C8.5989 12.9034 8.70117 13.1662 8.88015 13.3764C9.06197 13.5838 9.2935 13.7386 9.57475 13.8409C9.85884 13.9403 10.1699 13.9901 10.508 13.9901C10.8801 13.9901 11.2111 13.9318 11.5009 13.8153C11.7935 13.696 12.0236 13.5312 12.1912 13.321C12.3588 13.108 12.4426 12.8594 12.4426 12.5753C12.4426 12.3168 12.3688 12.1051 12.2211 11.9403C12.0762 11.7756 11.8787 11.6392 11.6287 11.5312C11.3816 11.4233 11.1017 11.3281 10.7892 11.2457L9.75799 10.9645C9.05913 10.7741 8.50515 10.4943 8.09606 10.125C7.68981 9.75568 7.48668 9.26705 7.48668 8.65909C7.48668 8.15625 7.62305 7.71733 7.89577 7.34233C8.1685 6.96733 8.53782 6.67614 9.00373 6.46875C9.46964 6.25852 9.99521 6.15341 10.5804 6.15341C11.1713 6.15341 11.6926 6.2571 12.1444 6.46449C12.5989 6.67188 12.9569 6.95739 13.2182 7.32102C13.4796 7.68182 13.6159 8.09659 13.6273 8.56534H12.3574Z" fill="black"/>
</svg>
