<svg width="19" height="17" viewBox="0 0 19 17" fill="none" xmlns="http://www.w3.org/2000/svg"><path d="M13.875 15.5H18.25V13.75C18.25 13.2045 18.08 12.6725 17.7636 12.228C17.4473 11.7836 17.0003 11.4487 16.4849 11.27C15.9695 11.0913 15.4112 11.0776 14.8876 11.2309C14.364 11.3841 13.9012 11.6967 13.5635 12.1251M13.875 15.5L13.5635 12.1251M13.875 15.5H5.125M13.875 15.5V13.75C13.875 13.176 13.7647 12.6274 13.5635 12.1251M13.5635 12.1251C13.2386 11.3131 12.6778 10.617 11.9535 10.1267C11.2292 9.63643 10.3746 9.37438 9.5 9.37438C8.62537 9.37438 7.77079 9.63643 7.0465 10.1267C6.32221 10.617 5.76144 11.3131 5.4365 12.1251M5.125 15.5H0.75V13.75C0.75004 13.2045 0.920044 12.6725 1.23638 12.228C1.55271 11.7836 1.99966 11.4487 2.51509 11.27C3.03053 11.0913 3.58883 11.0776 4.1124 11.2309C4.63596 11.3841 5.09878 11.6967 5.4365 12.1251M5.125 15.5L5.4365 12.1251M5.125 15.5V13.75C5.125 13.176 5.23525 12.6274 5.4365 12.1251M12.125 4.125C12.125 4.82119 11.8484 5.48887 11.3562 5.98116C10.8639 6.47344 10.1962 6.75 9.5 6.75C8.80381 6.75 8.13613 6.47344 7.64384 5.98116C7.15156 5.48887 6.875 4.82119 6.875 4.125C6.875 3.42881 7.15156 2.76113 7.64384 2.26884C8.13613 1.77656 8.80381 1.5 9.5 1.5C10.1962 1.5 10.8639 1.77656 11.3562 2.26884C11.8484 2.76113 12.125 3.42881 12.125 4.125ZM17.375 6.75C17.375 7.21413 17.1906 7.65925 16.8624 7.98744C16.5342 8.31563 16.0891 8.5 15.625 8.5C15.1609 8.5 14.7158 8.31563 14.3876 7.98744C14.0594 7.65925 13.875 7.21413 13.875 6.75C13.875 6.28587 14.0594 5.84075 14.3876 5.51256C14.7158 5.18437 15.1609 5 15.625 5C16.0891 5 16.5342 5.18437 16.8624 5.51256C17.1906 5.84075 17.375 6.28587 17.375 6.75ZM5.125 6.75C5.125 7.21413 4.94063 7.65925 4.61244 7.98744C4.28425 8.31563 3.83913 8.5 3.375 8.5C2.91087 8.5 2.46575 8.31563 2.13756 7.98744C1.80937 7.65925 1.625 7.21413 1.625 6.75C1.625 6.28587 1.80937 5.84075 2.13756 5.51256C2.46575 5.18437 2.91087 5 3.375 5C3.83913 5 4.28425 5.18437 4.61244 5.51256C4.94063 5.84075 5.125 6.28587 5.125 6.75Z" stroke="#151417" stroke-width="1.2" stroke-linecap="round" stroke-linejoin="round"/></svg>
